<?xml version="1.0" standalone="no"?>
<!DOCTYPE svg PUBLIC "-//W3C//DTD SVG 20010904//EN"
 "http://www.w3.org/TR/2001/REC-SVG-20010904/DTD/svg10.dtd">
<svg version="1.0" xmlns="http://www.w3.org/2000/svg"
 width="618.000000pt" height="618.000000pt" viewBox="0 0 618.000000 618.000000"
 preserveAspectRatio="xMidYMid meet">
<metadata>
Created by potrace 1.14, written by Peter Selinger 2001-2017
</metadata>
<g transform="translate(0.000000,618.000000) scale(0.100000,-0.100000)"
fill="#000000" stroke="none">
<path d="M3063 5963 c11 -18 95 -32 237 -38 87 -5 140 -11 150 -20 9 -8 23
-10 35 -5 41 15 -61 34 -369 67 -40 4 -57 3 -53 -4z"/>
<path d="M2550 5931 c-188 -5 -230 -9 -257 -23 -17 -10 -35 -22 -38 -28 -3 -5
-34 -10 -68 -10 -35 0 -90 -7 -122 -16 -55 -14 -267 -105 -261 -112 2 -1 16 3
32 9 39 15 116 20 108 7 -4 -7 5 -8 27 -4 34 7 34 7 9 -8 -14 -9 -46 -22 -71
-31 -47 -16 -88 -49 -75 -62 3 -4 19 3 34 14 35 25 125 55 154 51 21 -3 20 -5
-12 -23 -19 -12 -66 -29 -105 -39 -87 -23 -277 -101 -330 -136 -22 -15 -56
-33 -75 -40 -19 -8 -52 -26 -73 -41 -21 -15 -51 -30 -66 -34 -16 -3 -39 -17
-51 -31 -13 -13 -28 -24 -34 -24 -15 -1 -66 -47 -66 -59 0 -17 -82 -59 -128
-66 -34 -6 -45 -12 -53 -33 -14 -38 -306 -335 -319 -327 -10 6 -32 -20 -24
-28 3 -3 -11 -37 -31 -76 -40 -75 -107 -146 -131 -137 -8 3 -14 0 -14 -5 0 -6
-9 -9 -20 -6 -16 4 -24 -4 -40 -36 -11 -23 -35 -69 -55 -102 -19 -33 -35 -70
-35 -82 0 -12 -7 -38 -16 -57 -16 -32 -16 -36 1 -52 17 -17 18 -17 38 10 11
15 47 56 80 89 33 34 67 74 77 89 35 57 90 82 90 41 0 -13 3 -13 15 -3 9 7
-17 -38 -56 -101 -86 -139 -204 -377 -255 -518 -21 -57 -44 -106 -52 -109 -8
-2 -23 5 -35 17 -19 18 -22 31 -19 82 1 33 7 69 12 80 8 13 7 25 -1 40 -9 18
-18 21 -55 16 -60 -6 -74 -21 -74 -74 0 -30 -10 -63 -29 -101 -47 -90 -52
-124 -49 -292 3 -143 4 -155 23 -165 75 -38 94 -56 97 -93 2 -30 7 -38 27 -40
23 -4 24 -6 17 -70 -3 -37 -6 -124 -6 -194 l0 -127 -24 5 c-20 3 -28 -2 -40
-27 -21 -43 -20 -50 11 -76 27 -22 27 -22 6 -23 -27 0 -28 -13 -8 -70 8 -23
15 -67 15 -97 0 -49 -1 -53 -16 -39 -8 9 -20 16 -25 16 -5 0 -9 13 -9 28 0 16
-7 73 -15 128 -17 113 -20 252 -4 197 9 -30 25 -50 34 -41 2 2 -5 37 -17 78
-11 41 -23 112 -25 158 -4 81 -11 93 -41 74 -7 -5 -17 -24 -22 -43 -13 -45
-12 -269 1 -389 6 -52 12 -117 14 -145 9 -150 57 -389 92 -460 11 -22 32 -85
48 -140 15 -55 38 -120 50 -145 12 -25 26 -56 30 -70 6 -23 20 -56 74 -172 12
-27 27 -48 32 -48 5 0 9 -11 9 -25 0 -52 61 -148 151 -241 49 -49 89 -96 89
-103 0 -29 41 -91 65 -97 15 -4 25 -13 25 -24 0 -33 12 -50 35 -50 12 0 34 -9
49 -21 23 -18 26 -18 26 -4 0 35 27 -4 33 -47 6 -43 35 -84 44 -60 7 18 17 15
60 -14 22 -15 37 -32 35 -41 -2 -10 2 -14 11 -10 8 3 42 -4 75 -16 61 -22 151
-95 189 -153 9 -14 41 -41 72 -62 31 -20 60 -42 64 -49 4 -7 13 -13 18 -13 12
0 69 -24 111 -46 14 -8 36 -14 49 -14 13 0 34 -11 48 -24 15 -13 53 -33 86
-46 34 -12 71 -34 85 -51 19 -22 38 -31 80 -38 30 -4 100 -21 155 -36 55 -14
120 -27 145 -28 26 -1 50 -8 56 -16 8 -10 47 -17 140 -22 152 -9 285 -25 369
-44 98 -23 703 -4 752 23 30 17 143 16 143 -1 0 -9 -31 -17 -97 -26 -54 -7
-129 -19 -168 -28 -50 -10 -149 -16 -340 -19 -148 -3 -283 -7 -298 -10 -19 -4
-34 0 -46 10 -14 12 -48 18 -147 22 -71 3 -150 12 -175 19 -25 8 -84 21 -130
29 -46 8 -124 29 -174 46 -74 25 -103 30 -163 28 l-73 -3 113 -42 c132 -48
263 -83 313 -83 19 0 52 -7 72 -15 69 -26 275 -56 453 -66 181 -10 457 -3 476
12 5 5 38 9 72 11 34 1 63 7 66 13 2 7 35 12 80 13 46 1 87 7 106 17 20 11 36
13 48 6 11 -5 35 -4 67 4 28 7 91 16 140 19 70 6 104 14 150 36 33 16 80 34
105 40 25 7 88 34 140 60 52 27 108 52 123 55 22 4 27 10 22 25 -5 15 0 22 20
30 14 5 37 10 50 10 14 0 32 11 44 26 12 15 34 34 51 43 16 9 85 57 152 106
68 50 137 97 155 104 18 7 44 28 58 47 14 18 57 52 94 74 38 22 82 53 97 69
26 27 67 47 88 42 4 -1 19 5 32 14 15 9 46 15 87 15 83 0 103 17 112 97 11
108 15 121 44 146 45 37 74 101 122 267 7 25 21 54 31 66 20 22 24 49 8 59
-15 9 -12 25 4 25 29 0 56 55 56 114 0 41 10 84 36 154 47 124 104 299 104
318 0 8 6 25 14 37 13 20 53 230 79 412 11 79 -6 268 -28 320 -9 20 -15 95
-18 218 -3 103 -9 193 -15 200 -5 6 -22 65 -37 130 -21 89 -25 121 -17 129 19
19 14 68 -12 112 -17 30 -25 64 -30 128 -13 159 -106 418 -151 418 -14 0 -35
56 -35 97 0 12 -4 24 -9 27 -4 3 -16 27 -26 53 -10 26 -29 61 -42 76 -13 16
-39 62 -58 103 -19 42 -47 92 -63 112 -32 41 -62 98 -62 117 0 7 -6 18 -14 24
-11 9 -15 8 -21 -6 -9 -21 -9 -21 -1 -50 6 -18 4 -20 -14 -16 -11 3 -20 14
-20 24 0 34 -23 68 -64 95 -23 15 -58 43 -78 63 -20 20 -47 45 -60 57 -13 11
-46 48 -75 81 -28 33 -87 86 -130 118 -43 32 -93 78 -111 101 -22 30 -44 47
-70 54 -42 12 -101 54 -133 94 -12 15 -41 37 -64 49 -23 12 -61 32 -84 45 -24
13 -48 21 -54 19 -7 -2 12 -17 42 -33 50 -27 112 -71 207 -147 22 -17 54 -42
70 -53 16 -12 26 -24 23 -28 -10 -11 -121 33 -252 100 -97 49 -150 69 -217 83
-49 10 -102 27 -117 37 -41 27 -88 45 -279 103 -56 17 -108 31 -117 31 -8 0
-20 7 -27 15 -8 9 -30 15 -59 15 -26 0 -52 5 -59 12 -9 9 -18 9 -37 0 -21 -10
-32 -9 -53 2 -15 7 -33 11 -40 9 -8 -3 -39 1 -70 10 -31 8 -88 15 -126 16 -84
1 -108 8 -104 29 4 23 39 28 50 8 5 -9 16 -16 24 -16 21 0 0 37 -26 45 -27 9
-90 -13 -90 -31 0 -22 -80 -18 -136 8 -30 13 -74 23 -113 24 -34 2 -66 5 -69
8 -3 3 -1 6 5 6 16 0 185 29 213 37 21 5 17 8 -25 14 -27 4 -70 7 -95 6 -25 0
-146 -3 -270 -6z m1898 -928 c49 -125 75 -450 93 -1158 19 -756 -7 -1994 -52
-2410 -15 -142 -28 -194 -52 -210 -48 -31 -425 -60 -921 -72 l-293 -6 -7 34
c-44 238 -59 622 -35 897 20 230 19 262 -16 307 -39 52 -104 79 -169 71 -81
-9 -138 -66 -150 -148 -43 -301 -39 -809 8 -1086 7 -40 9 -75 5 -78 -12 -7
-672 14 -843 26 -155 12 -254 25 -303 41 -26 8 -35 18 -43 47 -34 128 -47 858
-31 1782 16 954 45 1947 57 1959 7 7 1531 28 2165 29 l577 2 10 -27z m-3548
-177 c0 -3 -23 -31 -51 -63 -28 -32 -81 -98 -118 -147 -40 -53 -67 -82 -69
-73 -5 24 35 95 57 102 31 10 83 75 78 97 -4 13 1 22 16 27 12 5 32 21 44 35
20 23 43 34 43 22z"/>
<path d="M3000 4418 c-77 -39 -85 -67 -109 -393 -27 -351 -26 -370 2 -419 65
-116 256 -113 314 4 20 41 23 75 39 371 l17 326 -24 43 c-46 83 -150 112 -239
68z"/>
<path d="M3729 5826 c13 -14 29 -22 37 -19 23 8 16 20 -17 32 -44 15 -46 14
-20 -13z"/>
<path d="M3265 5829 c-4 -6 -4 -13 -1 -16 8 -8 36 5 36 17 0 13 -27 13 -35 -1z"/>
<path d="M3923 5754 c27 -23 87 -34 87 -15 0 9 -36 23 -90 35 l-25 5 28 -25z"/>
<path d="M1674 5702 c-75 -25 -172 -78 -161 -88 2 -3 38 13 78 35 41 23 81 41
89 41 17 1 100 38 85 39 -5 0 -46 -12 -91 -27z"/>
<path d="M1309 5503 c-13 -16 -12 -17 4 -4 16 13 21 21 13 21 -2 0 -10 -8 -17
-17z"/>
<path d="M1223 5449 c-18 -12 -33 -26 -33 -32 0 -7 -15 -19 -32 -27 -17 -8
-38 -25 -45 -36 l-14 -22 46 16 c33 11 50 23 62 46 8 17 25 41 36 54 25 27 21
28 -20 1z"/>
<path d="M1027 5280 c-14 -11 -32 -20 -39 -20 -22 0 -60 -46 -56 -68 2 -17 14
-10 73 44 64 60 80 89 22 44z"/>
<path d="M976 5189 c-20 -17 -35 -34 -32 -37 3 -2 13 1 22 8 13 12 17 11 26
-1 8 -12 9 -12 5 1 -2 8 2 23 11 33 27 30 7 28 -32 -4z"/>
<path d="M873 5126 c-21 -18 -50 -39 -64 -47 -15 -8 -45 -37 -68 -66 -22 -28
-53 -59 -68 -68 -28 -17 -43 -39 -84 -127 -12 -27 -26 -48 -30 -48 -5 0 -25
-25 -44 -55 -34 -53 -44 -85 -26 -85 11 0 53 64 70 108 8 18 28 42 45 54 17
12 54 45 81 73 28 28 61 60 75 71 14 11 35 33 48 49 12 17 40 54 63 83 22 30
38 56 35 59 -3 4 -1 12 5 20 21 25 -1 13 -38 -21z"/>
<path d="M591 4751 c-10 -6 -10 -10 -1 -16 7 -4 19 0 28 9 14 13 14 16 2 16
-8 0 -21 -4 -29 -9z"/>
<path d="M480 4355 c-26 -61 -19 -69 15 -15 19 30 24 45 16 53 -7 7 -17 -4
-31 -38z"/>
<path d="M6042 3068 c-16 -21 -24 -76 -13 -95 10 -19 12 -14 26 70 6 39 4 45
-13 25z"/>
<path d="M6070 3019 c0 -11 5 -17 10 -14 6 3 10 13 10 21 0 8 -4 14 -10 14 -5
0 -10 -9 -10 -21z"/>
<path d="M6062 2892 c-26 -49 -29 -65 -25 -109 4 -41 1 -59 -16 -86 -11 -19
-21 -50 -21 -68 0 -45 -15 -68 -32 -51 -8 8 -12 38 -11 85 1 57 0 64 -6 32 -4
-22 -13 -51 -20 -63 -7 -13 -10 -35 -7 -48 4 -13 3 -24 -2 -24 -5 0 -9 -35 -9
-77 -1 -92 -26 -230 -49 -275 -25 -48 -74 -198 -74 -226 0 -14 -8 -39 -19 -56
-10 -17 -22 -49 -26 -71 -3 -22 -15 -55 -26 -73 -10 -18 -19 -37 -19 -43 0
-17 29 -9 40 11 6 12 21 20 35 20 23 0 25 -4 25 -45 0 -50 14 -59 32 -20 6 14
19 25 29 25 20 0 82 113 100 184 6 25 15 49 20 52 5 3 9 16 9 28 0 13 11 43
24 67 34 64 82 238 73 264 -4 8 2 23 13 33 11 10 23 33 26 52 6 28 5 32 -9 27
-12 -5 -17 -1 -17 12 0 10 6 21 14 24 9 4 17 28 22 64 4 32 15 92 25 133 16
66 17 77 4 96 -8 13 -24 25 -35 29 -23 7 -26 21 -6 28 15 6 11 41 -7 64 -5 7
-7 22 -4 32 3 11 -1 22 -8 25 -8 3 -25 -17 -43 -52z"/>
<path d="M762 958 c8 -12 20 -24 27 -26 20 -7 -5 34 -25 42 -15 6 -15 4 -2
-16z"/>
</g>
</svg>
